<mxfile host="app.diagrams.net" agent="Mozilla/5.0 (Windows NT 10.0; Win64; x64) AppleWebKit/537.36 (KHTML, like Gecko) Chrome/128.0.0.0 Safari/537.36" version="24.7.16">
  <diagram name="第 1 页" id="DtDPHzo9BjWapjaKtN3R">
    <mxGraphModel dx="710" dy="362" grid="1" gridSize="10" guides="1" tooltips="1" connect="1" arrows="1" fold="1" page="1" pageScale="1" pageWidth="1169" pageHeight="827" math="0" shadow="0">
      <root>
        <mxCell id="0" />
        <mxCell id="1" parent="0" />
        <mxCell id="q3679WqarNIwKBmOd71S-1" value="示例" style="rounded=1;whiteSpace=wrap;html=1;fontSize=16;fillColor=#F0F5FF;strokeColor=#6c8ebf;" vertex="1" parent="1">
          <mxGeometry x="220" y="460" width="60" height="30" as="geometry" />
        </mxCell>
        <mxCell id="q3679WqarNIwKBmOd71S-2" value="原问题" style="rounded=1;whiteSpace=wrap;html=1;fontSize=16;fillColor=#F0F5FF;strokeColor=#6c8ebf;" vertex="1" parent="1">
          <mxGeometry x="300" y="460" width="60" height="30" as="geometry" />
        </mxCell>
        <mxCell id="q3679WqarNIwKBmOd71S-10" style="edgeStyle=orthogonalEdgeStyle;rounded=0;orthogonalLoop=1;jettySize=auto;html=1;entryX=0.5;entryY=1;entryDx=0;entryDy=0;" edge="1" parent="1" source="q3679WqarNIwKBmOd71S-3" target="q3679WqarNIwKBmOd71S-4">
          <mxGeometry relative="1" as="geometry" />
        </mxCell>
        <mxCell id="q3679WqarNIwKBmOd71S-3" value="大语言模型" style="rounded=1;whiteSpace=wrap;html=1;fontSize=16;fillColor=#dae8fc;strokeColor=#6c8ebf;" vertex="1" parent="1">
          <mxGeometry x="220" y="410" width="140" height="30" as="geometry" />
        </mxCell>
        <mxCell id="q3679WqarNIwKBmOd71S-4" value="输出" style="rounded=1;whiteSpace=wrap;html=1;fontSize=16;fillColor=#F0F5FF;strokeColor=#6c8ebf;" vertex="1" parent="1">
          <mxGeometry x="220" y="360" width="140" height="30" as="geometry" />
        </mxCell>
        <mxCell id="q3679WqarNIwKBmOd71S-7" style="edgeStyle=orthogonalEdgeStyle;rounded=0;orthogonalLoop=1;jettySize=auto;html=1;entryX=0.214;entryY=1;entryDx=0;entryDy=0;entryPerimeter=0;" edge="1" parent="1" source="q3679WqarNIwKBmOd71S-1" target="q3679WqarNIwKBmOd71S-3">
          <mxGeometry relative="1" as="geometry" />
        </mxCell>
        <mxCell id="q3679WqarNIwKBmOd71S-11" style="edgeStyle=orthogonalEdgeStyle;rounded=0;orthogonalLoop=1;jettySize=auto;html=1;entryX=0.789;entryY=1.017;entryDx=0;entryDy=0;entryPerimeter=0;" edge="1" parent="1" source="q3679WqarNIwKBmOd71S-2" target="q3679WqarNIwKBmOd71S-3">
          <mxGeometry relative="1" as="geometry" />
        </mxCell>
        <mxCell id="q3679WqarNIwKBmOd71S-13" style="edgeStyle=orthogonalEdgeStyle;rounded=0;orthogonalLoop=1;jettySize=auto;html=1;entryX=0.5;entryY=1;entryDx=0;entryDy=0;exitX=0.25;exitY=0;exitDx=0;exitDy=0;" edge="1" parent="1" source="q3679WqarNIwKBmOd71S-12" target="q3679WqarNIwKBmOd71S-1">
          <mxGeometry relative="1" as="geometry" />
        </mxCell>
        <mxCell id="q3679WqarNIwKBmOd71S-12" value="知识库" style="rounded=1;whiteSpace=wrap;html=1;strokeColor=#6c8ebf;align=center;verticalAlign=middle;fontFamily=Helvetica;fontSize=16;fontColor=default;fillColor=#F0F5FF;" vertex="1" parent="1">
          <mxGeometry x="220" y="510" width="140" height="30" as="geometry" />
        </mxCell>
      </root>
    </mxGraphModel>
  </diagram>
</mxfile>
